<svg xmlns="http://www.w3.org/2000/svg" width="1195" viewBox="0 0 896.25 192.75" height="257" version="1.0"><defs><clipPath id="a"><path d="M.207 15.89H175v155H.207zm0 0"/></clipPath><clipPath id="b"><path d="m171.84 48.96-63.89 110.665a21.99 21.99 0 0 1-19.035 10.973 21.99 21.99 0 0 1-19.036-10.973l-11.2-19.387a.229.229 0 0 1-.042-.168.214.214 0 0 1 .09-.148.229.229 0 0 1 .168-.043c.058.008.113.039.148.09a18.423 18.423 0 0 0 15.36 5.148 18.407 18.407 0 0 0 7.78-2.93 18.396 18.396 0 0 0 5.7-6.05l53.484-92.73a18.43 18.43 0 0 0 2.422-8.009 18.423 18.423 0 0 0-6.258-15.043 18.482 18.482 0 0 0-7.386-3.93.228.228 0 0 1-.227-.226c0-.058.023-.117.066-.16a.246.246 0 0 1 .16-.066h22.676a21.984 21.984 0 0 1 10.989 2.957 21.98 21.98 0 0 1 8.039 8.05 22.023 22.023 0 0 1 2.941 10.993c0 3.859-1.02 7.648-2.95 10.988zM96.203 15.974H74.051a.235.235 0 0 0-.11.086.194.194 0 0 0-.043.132c0 .047.012.094.043.133a.254.254 0 0 0 .11.082 11.073 11.073 0 0 1 6.465 6.64 11.12 11.12 0 0 1 .601 4.704 11.168 11.168 0 0 1-1.418 4.527L47.41 88.117a11.133 11.133 0 0 1-3.328 3.555 11.113 11.113 0 0 1-9.39 1.477 11.133 11.133 0 0 1-4.262-2.356.214.214 0 0 0-.149-.09.229.229 0 0 0-.168.043.214.214 0 0 0-.09.149.229.229 0 0 0 .043.168l11.336 19.68a14.52 14.52 0 0 0 5.313 5.32 14.526 14.526 0 0 0 14.52 0 14.52 14.52 0 0 0 5.312-5.32l42.242-73.005a14.522 14.522 0 0 0-.004-14.515 14.549 14.549 0 0 0-5.32-5.313 14.563 14.563 0 0 0-7.262-1.937zm-76.883 0a19.112 19.112 0 0 0-3.73 37.859 19.117 19.117 0 0 0 19.62-8.125 19.112 19.112 0 0 0 3.224-10.621 19.036 19.036 0 0 0-1.45-7.316 19.064 19.064 0 0 0-4.144-6.204 19.064 19.064 0 0 0-6.203-4.144 19.183 19.183 0 0 0-7.317-1.45zm0 0"/></clipPath><linearGradient x1="40.519" gradientTransform="matrix(4.66134 0 0 4.66112 .206 15.974)" y1="28.659" x2="-.531" gradientUnits="userSpaceOnUse" y2=".782" id="c"><stop stop-color="#5433FF" offset="0"/><stop stop-color="#5433FF" offset=".063"/><stop stop-color="#5433FF" offset=".078"/><stop stop-color="#5433FF" offset=".086"/><stop stop-color="#5434FF" offset=".09"/><stop stop-color="#5335FF" offset=".094"/><stop stop-color="#5336FF" offset=".098"/><stop stop-color="#5237FF" offset=".102"/><stop stop-color="#5238FF" offset=".105"/><stop stop-color="#5239FF" offset=".109"/><stop stop-color="#513AFF" offset=".113"/><stop stop-color="#513BFF" offset=".117"/><stop stop-color="#503CFF" offset=".121"/><stop stop-color="#503DFF" offset=".125"/><stop stop-color="#503EFF" offset=".129"/><stop stop-color="#4F3FFF" offset=".133"/><stop stop-color="#4F40FF" offset=".137"/><stop stop-color="#4E41FF" offset=".141"/><stop stop-color="#4E42FF" offset=".145"/><stop stop-color="#4E43FF" offset=".148"/><stop stop-color="#4D44FF" offset=".152"/><stop stop-color="#4D45FF" offset=".156"/><stop stop-color="#4D47FF" offset=".16"/><stop stop-color="#4C48FF" offset=".164"/><stop stop-color="#4C49FF" offset=".168"/><stop stop-color="#4B4AFF" offset=".172"/><stop stop-color="#4B4BFF" offset=".176"/><stop stop-color="#4B4CFF" offset=".18"/><stop stop-color="#4A4DFF" offset=".184"/><stop stop-color="#4A4EFF" offset=".188"/><stop stop-color="#494FFF" offset=".191"/><stop stop-color="#4950FF" offset=".195"/><stop stop-color="#4951FF" offset=".199"/><stop stop-color="#4852FF" offset=".203"/><stop stop-color="#4853FF" offset=".207"/><stop stop-color="#4754FF" offset=".211"/><stop stop-color="#4755FF" offset=".215"/><stop stop-color="#4756FF" offset=".219"/><stop stop-color="#4657FF" offset=".223"/><stop stop-color="#4658FF" offset=".227"/><stop stop-color="#4659FF" offset=".23"/><stop stop-color="#455AFF" offset=".234"/><stop stop-color="#455BFF" offset=".238"/><stop stop-color="#445CFF" offset=".242"/><stop stop-color="#445DFF" offset=".246"/><stop stop-color="#445EFF" offset=".25"/><stop stop-color="#435FFF" offset=".254"/><stop stop-color="#4360FF" offset=".258"/><stop stop-color="#4261FF" offset=".262"/><stop stop-color="#4262FF" offset=".266"/><stop stop-color="#4263FF" offset=".27"/><stop stop-color="#4164FF" offset=".273"/><stop stop-color="#4166FF" offset=".277"/><stop stop-color="#4067FF" offset=".281"/><stop stop-color="#4068FF" offset=".285"/><stop stop-color="#4069FF" offset=".289"/><stop stop-color="#3F6AFF" offset=".293"/><stop stop-color="#3F6BFF" offset=".297"/><stop stop-color="#3F6CFF" offset=".301"/><stop stop-color="#3E6DFF" offset=".305"/><stop stop-color="#3E6EFF" offset=".309"/><stop stop-color="#3D6FFF" offset=".313"/><stop stop-color="#3D70FF" offset=".316"/><stop stop-color="#3D71FF" offset=".32"/><stop stop-color="#3C72FF" offset=".324"/><stop stop-color="#3C73FF" offset=".328"/><stop stop-color="#3B74FF" offset=".332"/><stop stop-color="#3B75FF" offset=".336"/><stop stop-color="#3B76FF" offset=".34"/><stop stop-color="#3A77FF" offset=".344"/><stop stop-color="#3A78FF" offset=".348"/><stop stop-color="#3979FF" offset=".352"/><stop stop-color="#397AFF" offset=".355"/><stop stop-color="#397BFF" offset=".359"/><stop stop-color="#387CFF" offset=".363"/><stop stop-color="#387DFF" offset=".367"/><stop stop-color="#377EFF" offset=".371"/><stop stop-color="#377FFF" offset=".375"/><stop stop-color="#3780FF" offset=".379"/><stop stop-color="#3681FF" offset=".383"/><stop stop-color="#3682FF" offset=".387"/><stop stop-color="#3683FF" offset=".391"/><stop stop-color="#3584FF" offset=".395"/><stop stop-color="#3586FF" offset=".398"/><stop stop-color="#3487FF" offset=".402"/><stop stop-color="#3488FF" offset=".406"/><stop stop-color="#3489FF" offset=".41"/><stop stop-color="#338AFF" offset=".414"/><stop stop-color="#338BFF" offset=".418"/><stop stop-color="#328CFF" offset=".422"/><stop stop-color="#328DFF" offset=".426"/><stop stop-color="#328EFF" offset=".43"/><stop stop-color="#318FFF" offset=".434"/><stop stop-color="#3190FF" offset=".438"/><stop stop-color="#3091FF" offset=".441"/><stop stop-color="#3092FF" offset=".445"/><stop stop-color="#3093FF" offset=".449"/><stop stop-color="#2F94FF" offset=".453"/><stop stop-color="#2F95FF" offset=".457"/><stop stop-color="#2F96FF" offset=".461"/><stop stop-color="#2E97FF" offset=".465"/><stop stop-color="#2E98FF" offset=".469"/><stop stop-color="#2D99FF" offset=".473"/><stop stop-color="#2D9AFF" offset=".477"/><stop stop-color="#2D9BFF" offset=".48"/><stop stop-color="#2C9CFF" offset=".484"/><stop stop-color="#2C9DFF" offset=".488"/><stop stop-color="#2B9EFF" offset=".492"/><stop stop-color="#2B9FFF" offset=".496"/><stop stop-color="#2BA0FF" offset=".5"/><stop stop-color="#2AA1FF" offset=".504"/><stop stop-color="#2AA2FF" offset=".508"/><stop stop-color="#29A3FF" offset=".512"/><stop stop-color="#29A5FF" offset=".516"/><stop stop-color="#29A6FF" offset=".52"/><stop stop-color="#28A7FF" offset=".523"/><stop stop-color="#28A8FF" offset=".527"/><stop stop-color="#28A9FF" offset=".531"/><stop stop-color="#27AAFF" offset=".535"/><stop stop-color="#27ABFF" offset=".539"/><stop stop-color="#26ACFF" offset=".543"/><stop stop-color="#26ADFF" offset=".547"/><stop stop-color="#26AEFF" offset=".551"/><stop stop-color="#25AFFF" offset=".555"/><stop stop-color="#25B0FF" offset=".559"/><stop stop-color="#24B1FF" offset=".563"/><stop stop-color="#24B2FF" offset=".566"/><stop stop-color="#24B3FF" offset=".57"/><stop stop-color="#23B4FF" offset=".574"/><stop stop-color="#23B5FF" offset=".578"/><stop stop-color="#22B6FF" offset=".582"/><stop stop-color="#22B7FF" offset=".586"/><stop stop-color="#22B8FF" offset=".59"/><stop stop-color="#21B9FF" offset=".594"/><stop stop-color="#21BAFF" offset=".598"/><stop stop-color="#21BBFF" offset=".602"/><stop stop-color="#20BCFF" offset=".605"/><stop stop-color="#20BDFF" offset=".609"/><stop stop-color="#20BEFE" offset=".613"/><stop stop-color="#21BEFD" offset=".617"/><stop stop-color="#21BFFD" offset=".621"/><stop stop-color="#22BFFC" offset=".625"/><stop stop-color="#22C0FB" offset=".629"/><stop stop-color="#23C0FB" offset=".633"/><stop stop-color="#23C1FA" offset=".637"/><stop stop-color="#24C1F9" offset=".641"/><stop stop-color="#24C2F8" offset=".645"/><stop stop-color="#25C2F8" offset=".648"/><stop stop-color="#25C3F7" offset=".652"/><stop stop-color="#25C3F6" offset=".656"/><stop stop-color="#26C4F6" offset=".66"/><stop stop-color="#26C4F5" offset=".664"/><stop stop-color="#27C5F4" offset=".668"/><stop stop-color="#27C5F4" offset=".672"/><stop stop-color="#28C6F3" offset=".676"/><stop stop-color="#28C6F2" offset=".68"/><stop stop-color="#29C7F2" offset=".684"/><stop stop-color="#29C7F1" offset=".688"/><stop stop-color="#29C8F0" offset=".691"/><stop stop-color="#2AC8EF" offset=".695"/><stop stop-color="#2AC9EF" offset=".699"/><stop stop-color="#2BC9EE" offset=".703"/><stop stop-color="#2BC9ED" offset=".707"/><stop stop-color="#2CCAED" offset=".711"/><stop stop-color="#2CCAEC" offset=".715"/><stop stop-color="#2DCBEB" offset=".719"/><stop stop-color="#2DCBEB" offset=".723"/><stop stop-color="#2ECCEA" offset=".727"/><stop stop-color="#2ECCE9" offset=".73"/><stop stop-color="#2ECDE8" offset=".734"/><stop stop-color="#2FCDE8" offset=".738"/><stop stop-color="#2FCEE7" offset=".742"/><stop stop-color="#30CEE6" offset=".746"/><stop stop-color="#30CFE6" offset=".75"/><stop stop-color="#31CFE5" offset=".754"/><stop stop-color="#31D0E4" offset=".758"/><stop stop-color="#32D0E4" offset=".762"/><stop stop-color="#32D1E3" offset=".766"/><stop stop-color="#33D1E2" offset=".77"/><stop stop-color="#33D2E1" offset=".773"/><stop stop-color="#33D2E1" offset=".777"/><stop stop-color="#34D3E0" offset=".781"/><stop stop-color="#34D3DF" offset=".785"/><stop stop-color="#35D4DF" offset=".789"/><stop stop-color="#35D4DE" offset=".793"/><stop stop-color="#36D5DD" offset=".797"/><stop stop-color="#36D5DD" offset=".801"/><stop stop-color="#37D6DC" offset=".805"/><stop stop-color="#37D6DB" offset=".809"/><stop stop-color="#37D7DB" offset=".813"/><stop stop-color="#38D7DA" offset=".816"/><stop stop-color="#38D8D9" offset=".82"/><stop stop-color="#39D8D8" offset=".824"/><stop stop-color="#39D9D8" offset=".828"/><stop stop-color="#3AD9D7" offset=".832"/><stop stop-color="#3ADAD6" offset=".836"/><stop stop-color="#3BDAD6" offset=".84"/><stop stop-color="#3BDBD5" offset=".844"/><stop stop-color="#3CDBD4" offset=".848"/><stop stop-color="#3CDCD4" offset=".852"/><stop stop-color="#3CDCD3" offset=".855"/><stop stop-color="#3DDDD2" offset=".859"/><stop stop-color="#3DDDD1" offset=".863"/><stop stop-color="#3EDED1" offset=".867"/><stop stop-color="#3EDED0" offset=".871"/><stop stop-color="#3FDFCF" offset=".875"/><stop stop-color="#3FDFCF" offset=".879"/><stop stop-color="#40E0CE" offset=".883"/><stop stop-color="#40E0CD" offset=".887"/><stop stop-color="#40E1CD" offset=".891"/><stop stop-color="#41E1CC" offset=".895"/><stop stop-color="#41E2CB" offset=".898"/><stop stop-color="#42E2CA" offset=".902"/><stop stop-color="#42E3CA" offset=".906"/><stop stop-color="#43E3C9" offset=".91"/><stop stop-color="#43E4C8" offset=".914"/><stop stop-color="#44E4C8" offset=".918"/><stop stop-color="#44E5C7" offset=".922"/><stop stop-color="#45E5C6" offset=".926"/><stop stop-color="#45E6C6" offset=".93"/><stop stop-color="#45E6C5" offset=".934"/><stop stop-color="#46E7C4" offset=".938"/><stop stop-color="#46E7C4" offset=".941"/><stop stop-color="#47E8C3" offset=".945"/><stop stop-color="#47E8C2" offset=".949"/><stop stop-color="#48E9C1" offset=".953"/><stop stop-color="#48E9C1" offset=".957"/><stop stop-color="#49EAC0" offset=".961"/><stop stop-color="#49EABF" offset=".965"/><stop stop-color="#49EBBF" offset=".969"/><stop stop-color="#4AEBBE" offset=".973"/><stop stop-color="#4AECBD" offset=".977"/><stop stop-color="#4BECBD" offset=".98"/><stop stop-color="#4BEDBC" offset=".984"/><stop stop-color="#4CEDBB" offset=".988"/><stop stop-color="#4CEEBA" offset=".992"/><stop stop-color="#4DEEBA" offset=".996"/><stop stop-color="#4DEFB9" offset="1"/></linearGradient></defs><g clip-path="url(#a)"><g clip-path="url(#b)"><path fill="url(#c)" d="M.207 15.973v154.625h174.582V15.973zm0 0"/></g></g><path d="m282.3 20.273-26.266 61.75h-14.656l-26.266-61.75h16.781l16.766 40.921 16.86-40.921zM354.82 68.929v13.094h-48.109v-61.75h47.828v13.093h-32.625v11.61h29.953v12.343h-29.953v11.61zM441.718 20.273v61.75h-12.531l-31.25-35.75v35.75h-15.203v-61.75h12.625l31.25 36.875V20.273zM526.123 20.273v33.921c0 8.844-2.508 15.922-7.516 21.235-5 5.312-11.621 7.969-19.86 7.969-8.417 0-15.195-2.657-20.328-7.97-5.125-5.312-7.687-12.39-7.687-21.234V20.273h15.203v33.921c0 4.668 1.164 8.371 3.5 11.11 2.344 2.73 5.445 4.094 9.313 4.094 3.687 0 6.632-1.364 8.843-4.094 2.219-2.739 3.328-6.442 3.328-11.11V20.273zM579.285 18.898c6.758 0 12.41 1.585 16.953 4.75 4.551 3.156 7.41 7.53 8.578 13.125l-14.921 3.046c-.563-2.77-1.86-4.906-3.891-6.406-2.024-1.508-4.324-2.265-6.906-2.265-2.45 0-4.446.601-5.985 1.796-1.531 1.2-2.297 2.688-2.297 4.47 0 2.71 1.657 4.433 4.97 5.171l12.812 2.844c11.3 2.523 16.953 8.515 16.953 17.984 0 6.324-2.43 11.235-7.281 14.735-4.856 3.5-10.907 5.25-18.157 5.25-7.187 0-13.289-1.641-18.297-4.922-5-3.29-7.902-7.883-8.703-13.782l15.672-3.03c1.469 6.073 5.52 9.109 12.156 9.109 2.832 0 5.063-.583 6.688-1.75 1.625-1.165 2.437-2.704 2.437-4.61 0-1.469-.418-2.629-1.25-3.484-.824-.864-2.308-1.508-4.453-1.938l-12.906-2.765c-11.062-2.52-16.594-8.485-16.594-17.891 0-5.957 2.239-10.687 6.719-14.187 4.488-3.5 10.39-5.25 17.703-5.25zM261.393 142.904l13.422 2.64c-1.273 6.844-4.449 12.227-9.53 16.14-5.075 3.919-11.227 5.876-18.454 5.876-8.219 0-15.188-2.785-20.906-8.36-5.711-5.57-8.563-12.437-8.563-20.593 0-8.114 2.852-14.97 8.563-20.563 5.718-5.601 12.687-8.406 20.906-8.406 6.957 0 13.016 1.934 18.172 5.797 5.156 3.855 8.394 9.012 9.719 15.469l-13.407 3.14c-.824-3.914-2.523-6.879-5.093-8.89-2.563-2.02-5.696-3.032-9.391-3.032-4.418 0-8.156 1.575-11.219 4.719-3.062 3.148-4.594 7.07-4.594 11.766 0 4.687 1.532 8.62 4.594 11.797 3.063 3.168 6.801 4.75 11.219 4.75 3.645 0 6.75-1.032 9.312-3.094 2.563-2.07 4.313-5.125 5.25-9.156zM305.715 118.075c5.719-5.625 12.711-8.437 20.985-8.437 8.28 0 15.273 2.812 20.984 8.437 5.707 5.625 8.562 12.497 8.562 20.61 0 8.054-2.855 14.883-8.562 20.484-5.711 5.594-12.703 8.39-20.984 8.39-8.274 0-15.266-2.796-20.985-8.39-5.71-5.601-8.562-12.43-8.562-20.484 0-8.113 2.851-14.985 8.562-20.61zm9.64 32.329c3.04 3.117 6.821 4.671 11.345 4.671 4.53 0 8.312-1.554 11.343-4.671 3.032-3.125 4.547-7.032 4.547-11.72 0-4.75-1.515-8.695-4.547-11.843-3.031-3.144-6.812-4.719-11.343-4.719-4.524 0-8.305 1.575-11.344 4.719-3.031 3.148-4.547 7.094-4.547 11.844 0 4.687 1.516 8.594 4.547 11.719zM444.49 110.872v55.453h-13.25v-27.64l-14.485 27.64h-8.438l-14.562-27.812v27.812h-13.25v-55.453h13.406l18.625 34.344 18.625-34.344zM534.626 110.872v55.453h-13.25v-27.64l-14.485 27.64h-8.437l-14.563-27.812v27.812h-13.25v-55.453h13.407l18.625 34.344 18.625-34.344zM610.356 110.872v30.453c0 7.95-2.25 14.309-6.75 19.079-4.492 4.773-10.433 7.156-17.828 7.156-7.562 0-13.648-2.383-18.25-7.156-4.605-4.77-6.906-11.13-6.906-19.079v-30.453h13.656v30.453c0 4.2 1.047 7.528 3.14 9.985 2.094 2.449 4.88 3.672 8.36 3.672 3.313 0 5.957-1.223 7.938-3.672 1.988-2.457 2.984-5.785 2.984-9.985v-30.453zM689.316 110.872v55.453h-11.25l-28.063-32.109v32.11h-13.656v-55.454h11.344l28.062 33.11v-33.11zM729.215 166.325h-13.657v-55.453h13.657zM801.73 122.794h-17.969v43.531h-13.578v-43.53H752.23v-11.923h49.5zM855.857 148.95v17.375h-13.906v-17.218l-21.438-38.235h14.907l13.656 24.328 13.484-24.328h15.235zm0 0" fill="#fff"/></svg>