<svg xmlns="http://www.w3.org/2000/svg" width="21" height="24" fill="none"><path fill="#F0B90B" d="M4.00392 3.6761 10.3727 0l6.3688 3.6761L14.4 5.03415 10.3727 2.7161 6.34539 5.03415 4.00392 3.6761ZM16.7415 8.31219 14.4 6.95415 10.3727 9.2722 6.34539 6.95415 4.00392 8.31219v2.71611l4.02731 2.318v4.6361l2.34147 1.3581 2.3415-1.3581v-4.6361l4.0273-2.318V8.31219Zm0 7.35221v-2.7161L14.4 14.3063v2.7161l2.3415-1.358Zm1.6624.96-4.0273 2.318v2.7161l6.3688-3.6761v-7.3522l-2.3415 1.3581v4.6361ZM16.0625 5.99415l2.3414 1.35804v2.71611l2.3415-1.35806V5.99415L18.4039 4.6361l-2.3414 1.35805ZM8.03123 19.9259v2.7161L10.3727 24l2.3415-1.358v-2.7161l-2.3415 1.358-2.34147-1.358Zm-4.02731-4.2615 2.34147 1.358v-2.7161l-2.34147-1.358v2.7161Zm4.02731-9.67025 2.34147 1.35804 2.3415-1.35804-2.3415-1.35805-2.34147 1.35805ZM2.34146 7.35219l2.34147-1.35804L2.34146 4.6361 0 5.99415v2.71609l2.34146 1.35806V7.35219Zm0 4.63611L0 10.6302v7.3522l6.36877 3.6761v-2.7161l-4.02731-2.318v-4.6361Z"/></svg>